<?xml version="1.0" encoding="utf-8"?>
<!-- Generator: Adobe Illustrator 23.1.0, SVG Export Plug-In . SVG Version: 6.00 Build 0)  -->
<svg version="1.1" id="Layer_1" xmlns="http://www.w3.org/2000/svg" xmlns:xlink="http://www.w3.org/1999/xlink" x="0px" y="0px"
	 viewBox="0 10 590 470" xml:space="preserve">
<style type="text/css">
	.st0{fill:#b9e5fd;stroke:#b9e5fd;stroke-width:3.0001;stroke-linejoin:round;stroke-miterlimit:10.0005;}
	.st1{fill:#b9e5fd;stroke:#b9e5fd;stroke-width:3;stroke-linejoin:round;stroke-miterlimit:10;}
	.st2{fill:#b9e5fd;}
</style>
<rect x="222.1" y="318.8" transform="matrix(0.9204 -0.3911 0.3911 0.9204 -105.3644 134.2522)" class="st0" width="109.7" height="14.1"/>
<rect x="331.6" y="272.2" transform="matrix(0.9204 -0.3911 0.3911 0.9204 -78.4459 173.366)" class="st0" width="109.7" height="14.1"/>
<path class="st1" d="M213.9,142.9l21.3-16.5c0.6-0.5,1.4-0.6,2.2-0.3l28.1,9.4c2.3,0.8,3.3,4,1.6,5.3L246,157.3
	c-0.6,0.5-1.4,0.6-2.2,0.3l-28.1-9.4C213.3,147.4,212.3,144.3,213.9,142.9z"/>
<path class="st1" d="M344.6,76.9l-4,3.1c-0.6,0.5-1.4,0.6-2.2,0.3l-28.1-9.4c-2.3-0.8-3.3-4-1.6-5.3l21.3-16.5
	c0.6-0.5,1.4-0.6,2.2-0.3L344.6,76.9z"/>
<g>
	<path class="st1" d="M261.2,104.1l21.3-16.5c0.6-0.5,1.4-0.6,2.2-0.3l28.1,9.4c2.3,0.8,3.3,4,1.6,5.3l-21.3,16.5
		c-0.6,0.5-1.4,0.6-2.2,0.3l-28.1-9.4C260.5,108.6,259.5,105.4,261.2,104.1z"/>
</g>
<path class="st0" d="M382.4,129.6l-5.2,22.6c-0.2,0.8-0.7,1.4-1.4,1.7L351,164.5c-2,0.8-4.2-1.4-3.6-3.6l5.5-24.1L324,149
	c0,0.3,0,0.7,0,1.1l-6.3,27.4c-0.2,0.8-0.7,1.4-1.4,1.7l-24.8,10.5c-2,0.8-4.2-1.4-3.6-3.7l5.5-24.1L265,174.1c0,0.3,0,0.7,0,1.1
	l-6.3,27.4c-0.2,0.8-0.7,1.4-1.4,1.7l-24.8,10.5c-2,0.8-4.2-1.4-3.6-3.7l5.5-24.1L170,214.5l49.8,117.3l210.4-89.4L382.4,129.6z
	 M219.9,266.1c-0.7-1.7,0.1-3.7,1.8-4.4l165.5-70.3c1.7-0.7,3.7,0.1,4.4,1.8c0.7,1.7-0.1,3.7-1.8,4.4l-165.5,70.3
	C222.6,268.6,220.6,267.8,219.9,266.1z M403.8,230.4l-165.5,70.3c-1.7,0.7-3.7-0.1-4.4-1.8c-0.7-1.7,0.1-3.7,1.8-4.4l165.5-70.3
	c1.7-0.7,3.7,0.1,4.4,1.8C406.3,227.7,405.5,229.7,403.8,230.4z"/>
<path class="st1" d="M160.7,185.3l28.3-20.7l40.2,6.4l-59.7,43.7l-11-15.1C155.1,195.1,156.1,188.7,160.7,185.3z"/>
<path class="st1" d="M229.7,172.1"/>
<g>
	<g>
		<path class="st2" d="M100.4,394.2h18c9.2,0,15.6,5.1,15.6,14c0,9.1-6.3,14.4-16.1,14.4h-13.5v22h-4L100.4,394.2L100.4,394.2z M104.4,419.1
			h13.9c8.1,0,11.5-4.3,11.5-10.7c0-6.8-4.5-10.6-11.2-10.6h-14.2V419.1z"/>
		<path class="st2" d="M144.5,394.2h3.9v22h30.2v-22h3.9v50.4h-3.9v-24.8h-30.2v24.8h-3.9V394.2z"/>
		<path class="st2" d="M200.5,394.2v50.4h-3.9v-50.4H200.5z"/>
		<path class="st2" d="M258.3,421.4c0-9.9,0.1-19.3,0.3-24.3h-0.2c-2,6.8-12.2,31.6-18.6,47.5h-3.8c-4.8-12.3-15.4-40-17.7-47.6H218
			c0.4,5.8,0.5,17.5,0.5,26.1v21.5h-3.9v-50.4h5.8c6.9,17.3,15.6,39.9,17.5,45.6h0.1c1.1-3.7,11.2-28.8,18.3-45.6h5.8v50.4h-3.9
			L258.3,421.4L258.3,421.4z"/>
		<path class="st2" d="M276.3,394.2h3.9v22h30.2v-22h3.9v50.4h-3.9v-24.8h-30.2v24.8h-3.9V394.2z"/>
		<path class="st2" d="M370.7,419.1c0,13.8-7.3,26.3-22.9,26.3c-14.2,0-22.5-11.5-22.5-25.9c0-14.3,8-25.9,23-25.9
			C362.2,393.5,370.7,404.4,370.7,419.1z M329.5,419.2c0,11.6,6.4,22.5,18.5,22.5c13,0,18.5-10.7,18.5-22.6c0-11.7-6.2-22-18.4-22
			C335.2,397.1,329.5,407.8,329.5,419.2z"/>
		<path class="st2" d="M392.1,397.8h-16.9v-3.6h37.9v3.6h-17v46.8h-4L392.1,397.8L392.1,397.8z"/>
		<path class="st2" d="M417.8,444.6v-9.3h3.6v9.3H417.8z"/>
		<path class="st2" d="M443.1,397.8h-16.9v-3.6h37.9v3.6h-17v46.8h-4L443.1,397.8L443.1,397.8z"/>
		<path class="st2" d="M484.2,444.6l-18.7-50.4h4.2l9.8,26.4c2.8,7.6,6,16.1,7.1,20.3h0.1c1.1-3.7,4.5-12.6,7.3-20l10.1-26.6h4.1l-19.4,50.4
			L484.2,444.6L484.2,444.6z"/>
	</g>
</g>
</svg>
