<?xml version="1.0" encoding="utf-8"?>
<!-- Generator: Adobe Illustrator 23.1.0, SVG Export Plug-In . SVG Version: 6.00 Build 0)  -->
<svg version="1.1" id="Layer_1" xmlns="http://www.w3.org/2000/svg" xmlns:xlink="http://www.w3.org/1999/xlink" x="0px" y="0px"
	 viewBox="0 10 590 470" xml:space="preserve">
<style type="text/css">
	.st0{fill:#b9e5fd;stroke:#b9e5fd;stroke-width:3.0001;stroke-linejoin:round;stroke-miterlimit:10.0005;}
	.st1{fill:#b9e5fd;stroke:#b9e5fd;stroke-width:3;stroke-linejoin:round;stroke-miterlimit:10;}
	.st2{fill:#b9e5fd;}
</style>
<rect x="222.1" y="318.8" transform="matrix(0.9204 -0.3911 0.3911 0.9204 -105.3644 134.2522)" class="st0" width="109.7" height="14.1"/>
<rect x="331.6" y="272.2" transform="matrix(0.9204 -0.3911 0.3911 0.9204 -78.4459 173.366)" class="st0" width="109.7" height="14.1"/>
<path class="st1" d="M213.9,142.9l21.3-16.5c0.6-0.5,1.4-0.6,2.2-0.3l28.1,9.4c2.3,0.8,3.3,4,1.6,5.3L246,157.3
	c-0.6,0.5-1.4,0.6-2.2,0.3l-28.1-9.4C213.3,147.4,212.3,144.3,213.9,142.9z"/>
<path class="st1" d="M344.6,76.9l-4,3.1c-0.6,0.5-1.4,0.6-2.2,0.3l-28.1-9.4c-2.3-0.8-3.3-4-1.6-5.3l21.3-16.5
	c0.6-0.5,1.4-0.6,2.2-0.3L344.6,76.9z"/>
<g>
	<path class="st1" d="M261.2,104.1l21.3-16.5c0.6-0.5,1.4-0.6,2.2-0.3l28.1,9.4c2.3,0.8,3.3,4,1.6,5.3l-21.3,16.5
		c-0.6,0.5-1.4,0.6-2.2,0.3l-28.1-9.4C260.5,108.6,259.5,105.4,261.2,104.1z"/>
</g>
<path class="st0" d="M382.4,129.6l-5.2,22.6c-0.2,0.8-0.7,1.4-1.4,1.7L351,164.5c-2,0.8-4.2-1.4-3.6-3.6l5.5-24.1L324,149
	c0,0.3,0,0.7,0,1.1l-6.3,27.4c-0.2,0.8-0.7,1.4-1.4,1.7l-24.8,10.5c-2,0.8-4.2-1.4-3.6-3.7l5.5-24.1L265,174.1c0,0.3,0,0.7,0,1.1
	l-6.3,27.4c-0.2,0.8-0.7,1.4-1.4,1.7l-24.8,10.5c-2,0.8-4.2-1.4-3.6-3.7l5.5-24.1L170,214.5l49.8,117.3l210.4-89.4L382.4,129.6z
	 M219.9,266.1c-0.7-1.7,0.1-3.7,1.8-4.4l165.5-70.3c1.7-0.7,3.7,0.1,4.4,1.8c0.7,1.7-0.1,3.7-1.8,4.4l-165.5,70.3
	C222.6,268.6,220.6,267.8,219.9,266.1z M403.8,230.4l-165.5,70.3c-1.7,0.7-3.7-0.1-4.4-1.8c-0.7-1.7,0.1-3.7,1.8-4.4l165.5-70.3
	c1.7-0.7,3.7,0.1,4.4,1.8C406.3,227.7,405.5,229.7,403.8,230.4z"/>
<path class="st1" d="M160.7,185.3l28.3-20.7l40.2,6.4l-59.7,43.7l-11-15.1C155.1,195.1,156.1,188.7,160.7,185.3z"/>
<path class="st1" d="M229.7,172.1"/>
</svg>
